<?xml version="1.0" encoding="utf-8"?>
<!-- Generator: Adobe Illustrator 15.0.0, SVG Export Plug-In . SVG Version: 6.00 Build 0)  -->
<!DOCTYPE svg PUBLIC "-//W3C//DTD SVG 1.1//EN" "http://www.w3.org/Graphics/SVG/1.1/DTD/svg11.dtd">
<svg version="1.1" id="Layer_1" xmlns="http://www.w3.org/2000/svg" xmlns:xlink="http://www.w3.org/1999/xlink" x="0px" y="0px"
	 width="500px" height="500px" viewBox="0 0 500 500" enable-background="new 0 0 500 500" xml:space="preserve">
<g>
	<path fill="#010101" d="M419.904,39.225H409.08L378.343,0H249.996H121.663L90.926,39.225H80.091c-5.417,0-9.806,4.399-9.806,9.816
		s4.389,9.806,9.806,9.806h339.813c5.417,0,9.812-4.389,9.812-9.806S425.321,39.225,419.904,39.225z"/>
	<path fill="#010101" d="M91.277,73.239L152.451,500h97.54h97.553l61.174-426.761H249.991H91.277z M337.371,262.635
		c0,48.25-39.122,87.372-87.375,87.372c-48.25,0-87.366-39.122-87.366-87.372c0-48.258,39.116-87.375,87.366-87.375
		C298.249,175.26,337.371,214.377,337.371,262.635z"/>
</g>
</svg>
